<svg width="8" height="48" viewBox="0 0 8 48" fill="none" xmlns="http://www.w3.org/2000/svg">
<g clip-path="url(#clip0_22_448)">
<path d="M0.0832656 3.99914C0.0375352 1.80408 1.80442 0 3.99995 0C6.19548 0 7.96237 1.80408 7.91664 3.99913L7.06244 45.0006C7.02772 46.6672 5.66682 48 3.99995 48C2.33308 48 0.972183 46.6672 0.937464 45.0007L0.0832656 3.99914Z" fill="url(#paint0_linear_22_448)"/>
<path d="M2.51608 2.99991C2.5072 2.17416 3.17414 1.5 3.99995 1.5C4.82576 1.5 5.4927 2.17416 5.48382 2.99991L5.0107 47.0001C5.00475 47.554 4.55397 48 3.99995 48C3.44593 48 2.99516 47.554 2.9892 47.0001L2.51608 2.99991Z" fill="url(#paint1_linear_22_448)"/>
</g>
<defs>
<linearGradient id="paint0_linear_22_448" x1="3.99995" y1="0" x2="3.99995" y2="48" gradientUnits="userSpaceOnUse">
<stop stop-color="#6DCC3D"/>
<stop offset="1" stop-color="#77FF33" stop-opacity="0"/>
</linearGradient>
<linearGradient id="paint1_linear_22_448" x1="4" y1="1.5" x2="4" y2="48" gradientUnits="userSpaceOnUse">
<stop stop-color="white"/>
<stop offset="0.501358" stop-color="#99FF66"/>
<stop offset="1" stop-color="#53B324"/>
</linearGradient>
<clipPath id="clip0_22_448">
<rect width="8" height="48" fill="white"/>
</clipPath>
</defs>
</svg>
