<svg width="104" height="48" viewBox="0 0 104 48" fill="none" xmlns="http://www.w3.org/2000/svg">
<g clip-path="url(#clip0_23_701)">
<g clip-path="url(#clip1_23_701)">
<rect x="0.000244141" y="8" width="4" height="32" fill="white"/>
<rect x="8.00024" width="32" height="4" fill="white"/>
<rect x="8.00024" y="44" width="32" height="4" fill="white"/>
<rect x="44.0002" y="8" width="4" height="32" fill="white"/>
<rect x="4.00024" y="4" width="4" height="4" fill="white"/>
<rect x="40.0002" y="4" width="4" height="4" fill="white"/>
<rect x="40.0002" y="40" width="4" height="4" fill="white"/>
<rect x="4.00024" y="40" width="4" height="4" fill="white"/>
<g clip-path="url(#clip2_23_701)">
<rect x="24.0002" y="30" width="4" height="4" fill="white"/>
<rect x="16.0002" y="22" width="4" height="4" fill="white"/>
<rect x="20.0002" y="18" width="4" height="4" fill="white"/>
<rect x="20.0002" y="26" width="4" height="4" fill="white"/>
<rect x="24.0002" y="14" width="4" height="4" fill="white"/>
</g>
</g>
<g clip-path="url(#clip3_23_701)">
<rect x="55.9998" y="8" width="4" height="32" fill="white"/>
<rect x="63.9998" width="32" height="4" fill="white"/>
<rect x="63.9998" y="44" width="32" height="4" fill="white"/>
<rect x="99.9998" y="8" width="4" height="32" fill="white"/>
<rect x="59.9998" y="4" width="4" height="4" fill="white"/>
<rect x="95.9998" y="4" width="4" height="4" fill="white"/>
<rect x="95.9998" y="40" width="4" height="4" fill="white"/>
<rect x="59.9998" y="40" width="4" height="4" fill="white"/>
<g clip-path="url(#clip4_23_701)">
<rect x="75.9998" y="30" width="4" height="4" fill="white"/>
<rect x="83.9998" y="22" width="4" height="4" fill="white"/>
<rect x="79.9998" y="18" width="4" height="4" fill="white"/>
<rect x="79.9998" y="26" width="4" height="4" fill="white"/>
<rect x="75.9998" y="14" width="4" height="4" fill="white"/>
</g>
</g>
</g>
<defs>
<clipPath id="clip0_23_701">
<rect width="104" height="48" fill="white"/>
</clipPath>
<clipPath id="clip1_23_701">
<rect width="48" height="48" fill="white" transform="translate(0.000244141)"/>
</clipPath>
<clipPath id="clip2_23_701">
<rect width="12" height="20" fill="white" transform="translate(16.0002 14)"/>
</clipPath>
<clipPath id="clip3_23_701">
<rect width="48" height="48" fill="white" transform="translate(55.9998)"/>
</clipPath>
<clipPath id="clip4_23_701">
<rect width="12" height="20" fill="white" transform="translate(75.9998 14)"/>
</clipPath>
</defs>
</svg>
