<svg width="160" height="104" viewBox="0 0 160 104" fill="none" xmlns="http://www.w3.org/2000/svg">
<g clip-path="url(#clip0_23_701)">
<g clip-path="url(#clip1_23_701)">
<rect y="64" width="4" height="32" fill="white"/>
<rect x="8" y="56" width="32" height="4" fill="white"/>
<rect x="8" y="100" width="32" height="4" fill="white"/>
<rect x="44" y="64" width="4" height="32" fill="white"/>
<rect x="4" y="60" width="4" height="4" fill="white"/>
<rect x="40" y="60" width="4" height="4" fill="white"/>
<rect x="40" y="96" width="4" height="4" fill="white"/>
<rect x="4" y="96" width="4" height="4" fill="white"/>
<g clip-path="url(#clip2_23_701)">
<rect x="24" y="86" width="4" height="4" fill="white"/>
<rect x="16" y="78" width="4" height="4" fill="white"/>
<rect x="20" y="74" width="4" height="4" fill="white"/>
<rect x="20" y="82" width="4" height="4" fill="white"/>
<rect x="24" y="70" width="4" height="4" fill="white"/>
</g>
</g>
<g clip-path="url(#clip3_23_701)">
<rect x="56" y="64" width="4" height="32" fill="white"/>
<rect x="64" y="56" width="32" height="4" fill="white"/>
<rect x="64" y="100" width="32" height="4" fill="white"/>
<rect x="100" y="64" width="4" height="32" fill="white"/>
<rect x="60" y="60" width="4" height="4" fill="white"/>
<rect x="96" y="60" width="4" height="4" fill="white"/>
<rect x="96" y="96" width="4" height="4" fill="white"/>
<rect x="60" y="96" width="4" height="4" fill="white"/>
<g clip-path="url(#clip4_23_701)">
<rect x="78" y="84" width="4" height="4" fill="white"/>
<rect x="70" y="76" width="4" height="4" fill="white"/>
<rect x="74" y="80" width="4" height="4" fill="white"/>
<rect x="82" y="80" width="4" height="4" fill="white"/>
<rect x="86" y="76" width="4" height="4" fill="white"/>
</g>
</g>
<g clip-path="url(#clip5_23_701)">
<rect x="56" y="8" width="4" height="32" fill="white"/>
<rect x="64" width="32" height="4" fill="white"/>
<rect x="64" y="44" width="32" height="4" fill="white"/>
<rect x="100" y="8" width="4" height="32" fill="white"/>
<rect x="60" y="4" width="4" height="4" fill="white"/>
<rect x="96" y="4" width="4" height="4" fill="white"/>
<rect x="96" y="40" width="4" height="4" fill="white"/>
<rect x="60" y="40" width="4" height="4" fill="white"/>
<g clip-path="url(#clip6_23_701)">
<rect x="78" y="16" width="4" height="4" fill="white"/>
<rect x="70" y="24" width="4" height="4" fill="white"/>
<rect x="74" y="20" width="4" height="4" fill="white"/>
<rect x="82" y="20" width="4" height="4" fill="white"/>
<rect x="86" y="24" width="4" height="4" fill="white"/>
</g>
</g>
<g clip-path="url(#clip7_23_701)">
<rect x="112" y="64" width="4" height="32" fill="white"/>
<rect x="120" y="56" width="32" height="4" fill="white"/>
<rect x="120" y="100" width="32" height="4" fill="white"/>
<rect x="156" y="64" width="4" height="32" fill="white"/>
<rect x="116" y="60" width="4" height="4" fill="white"/>
<rect x="152" y="60" width="4" height="4" fill="white"/>
<rect x="152" y="96" width="4" height="4" fill="white"/>
<rect x="116" y="96" width="4" height="4" fill="white"/>
<g clip-path="url(#clip8_23_701)">
<rect x="132" y="86" width="4" height="4" fill="white"/>
<rect x="140" y="78" width="4" height="4" fill="white"/>
<rect x="136" y="74" width="4" height="4" fill="white"/>
<rect x="136" y="82" width="4" height="4" fill="white"/>
<rect x="132" y="70" width="4" height="4" fill="white"/>
</g>
</g>
</g>
<defs>
<clipPath id="clip0_23_701">
<rect width="160" height="104" fill="white"/>
</clipPath>
<clipPath id="clip1_23_701">
<rect width="48" height="48" fill="white" transform="translate(0 56)"/>
</clipPath>
<clipPath id="clip2_23_701">
<rect width="12" height="20" fill="white" transform="translate(16 70)"/>
</clipPath>
<clipPath id="clip3_23_701">
<rect width="48" height="48" fill="white" transform="translate(56 56)"/>
</clipPath>
<clipPath id="clip4_23_701">
<rect width="20" height="12" fill="white" transform="translate(70 76)"/>
</clipPath>
<clipPath id="clip5_23_701">
<rect width="48" height="48" fill="white" transform="translate(56)"/>
</clipPath>
<clipPath id="clip6_23_701">
<rect width="20" height="12" fill="white" transform="translate(70 16)"/>
</clipPath>
<clipPath id="clip7_23_701">
<rect width="48" height="48" fill="white" transform="translate(112 56)"/>
</clipPath>
<clipPath id="clip8_23_701">
<rect width="12" height="20" fill="white" transform="translate(132 70)"/>
</clipPath>
</defs>
</svg>
