<svg width="48" height="48" viewBox="0 0 48 48" fill="none" xmlns="http://www.w3.org/2000/svg">
<g filter="url(#filter0_ii_22_122)">
<path fill-rule="evenodd" clip-rule="evenodd" d="M28 4H20V8H13V12H8V16H4V28H12V32H8V36H4V40H8V36H12V40H16V36H22V40H26V36H32V40H36V36H40V40H44V36H40V32H36V28H44V16H40V12H35V8H28V4ZM28 28H20V32H28V28ZM36 32H32V36H36V32ZM16 36V32H12V36H16ZM16 20H12V24H16V20ZM31 20H35V24H31V20Z" fill="#E53956"/>
</g>
<defs>
<filter id="filter0_ii_22_122" x="4" y="4" width="40" height="36" filterUnits="userSpaceOnUse" color-interpolation-filters="sRGB">
<feFlood flood-opacity="0" result="BackgroundImageFix"/>
<feBlend mode="normal" in="SourceGraphic" in2="BackgroundImageFix" result="shape"/>
<feColorMatrix in="SourceAlpha" type="matrix" values="0 0 0 0 0 0 0 0 0 0 0 0 0 0 0 0 0 0 127 0" result="hardAlpha"/>
<feOffset dy="1"/>
<feComposite in2="hardAlpha" operator="arithmetic" k2="-1" k3="1"/>
<feColorMatrix type="matrix" values="0 0 0 0 1 0 0 0 0 1 0 0 0 0 1 0 0 0 0.4 0"/>
<feBlend mode="normal" in2="shape" result="effect1_innerShadow_22_122"/>
<feColorMatrix in="SourceAlpha" type="matrix" values="0 0 0 0 0 0 0 0 0 0 0 0 0 0 0 0 0 0 127 0" result="hardAlpha"/>
<feOffset dy="-1"/>
<feComposite in2="hardAlpha" operator="arithmetic" k2="-1" k3="1"/>
<feColorMatrix type="matrix" values="0 0 0 0 0 0 0 0 0 0 0 0 0 0 0 0 0 0 0.2 0"/>
<feBlend mode="normal" in2="effect1_innerShadow_22_122" result="effect2_innerShadow_22_122"/>
</filter>
</defs>
</svg>
