<svg width="64" height="48" viewBox="0 0 64 48" fill="none" xmlns="http://www.w3.org/2000/svg">
<g clip-path="url(#clip0_22_194)">
<g filter="url(#filter0_ii_22_194)">
<path fill-rule="evenodd" clip-rule="evenodd" d="M36 0H28V4H24V8H20V24H12V16H8V24H0V28H4V32H12V36H20V40H24V44H28V48H36V44H40V40H44V36H52V32H60V28H64V24H56V16H52V24H44V8H40V4H36V0Z" fill="#E6EAF2"/>
</g>
<path fill-rule="evenodd" clip-rule="evenodd" d="M34 7H30V11H26V24H30H34H38V11H34V7ZM34 18V11H30V18H34Z" fill="black"/>
</g>
<defs>
<filter id="filter0_ii_22_194" x="0" y="0" width="64" height="48" filterUnits="userSpaceOnUse" color-interpolation-filters="sRGB">
<feFlood flood-opacity="0" result="BackgroundImageFix"/>
<feBlend mode="normal" in="SourceGraphic" in2="BackgroundImageFix" result="shape"/>
<feColorMatrix in="SourceAlpha" type="matrix" values="0 0 0 0 0 0 0 0 0 0 0 0 0 0 0 0 0 0 127 0" result="hardAlpha"/>
<feOffset dy="1"/>
<feComposite in2="hardAlpha" operator="arithmetic" k2="-1" k3="1"/>
<feColorMatrix type="matrix" values="0 0 0 0 1 0 0 0 0 1 0 0 0 0 1 0 0 0 1 0"/>
<feBlend mode="normal" in2="shape" result="effect1_innerShadow_22_194"/>
<feColorMatrix in="SourceAlpha" type="matrix" values="0 0 0 0 0 0 0 0 0 0 0 0 0 0 0 0 0 0 127 0" result="hardAlpha"/>
<feOffset dy="-1"/>
<feComposite in2="hardAlpha" operator="arithmetic" k2="-1" k3="1"/>
<feColorMatrix type="matrix" values="0 0 0 0 0 0 0 0 0 0 0 0 0 0 0 0 0 0 0.2 0"/>
<feBlend mode="normal" in2="effect1_innerShadow_22_194" result="effect2_innerShadow_22_194"/>
</filter>
<clipPath id="clip0_22_194">
<rect width="64" height="48" fill="white"/>
</clipPath>
</defs>
</svg>
